<mxfile host="app.diagrams.net" modified="2020-11-09T06:27:26.658Z" agent="5.0 (Windows NT 10.0; Win64; x64) AppleWebKit/537.36 (KHTML, like Gecko) Chrome/86.0.4240.183 Safari/537.36" etag="myJgfeWFDvo0vtCVcWAE" version="13.9.2" type="github">
  <diagram id="9XVD74r8yh5lQiLcjH_A" name="Page-1">
    <mxGraphModel dx="1102" dy="557" grid="0" gridSize="10" guides="1" tooltips="1" connect="1" arrows="1" fold="1" page="0" pageScale="1" pageWidth="827" pageHeight="1169" math="0" shadow="0">
      <root>
        <mxCell id="0" />
        <mxCell id="1" parent="0" />
        <mxCell id="D09W5iZ9T6riWIHngCiJ-5" value="&lt;p style=&quot;margin: 0px ; margin-top: 4px ; text-align: center&quot;&gt;&lt;i&gt;{abstract}&lt;/i&gt;&lt;/p&gt;&lt;p style=&quot;margin: 0px ; margin-top: 4px ; text-align: center&quot;&gt;&lt;b&gt;Event&lt;/b&gt;&lt;/p&gt;&lt;hr size=&quot;1&quot;&gt;&lt;p style=&quot;margin: 0px ; margin-left: 4px&quot;&gt;+ name: String&lt;br&gt;+ isOnline: boolean&lt;/p&gt;&lt;p style=&quot;margin: 0px ; margin-left: 4px&quot;&gt;+ linOrVenue: String&lt;/p&gt;&lt;hr size=&quot;1&quot;&gt;&lt;p style=&quot;margin: 0px ; margin-left: 4px&quot;&gt;+ Event(String, boolean, String, EventType)&lt;br&gt;+ addPeriod(Duration)&lt;/p&gt;&lt;p style=&quot;margin: 0px ; margin-left: 4px&quot;&gt;+ getStorageString(): String&amp;nbsp;{abstract}&lt;/p&gt;" style="verticalAlign=top;align=left;overflow=fill;fontSize=12;fontFamily=Helvetica;html=1;" parent="1" vertex="1">
          <mxGeometry x="267" y="525" width="241" height="150" as="geometry" />
        </mxCell>
        <mxCell id="D09W5iZ9T6riWIHngCiJ-6" value="Extends" style="endArrow=block;endSize=16;endFill=0;entryX=0.465;entryY=1.013;entryDx=0;entryDy=0;entryPerimeter=0;html=1;fontColor=#FFFFFF;exitX=0.5;exitY=0;exitDx=0;exitDy=0;" parent="1" source="D09W5iZ9T6riWIHngCiJ-22" target="D09W5iZ9T6riWIHngCiJ-5" edge="1">
          <mxGeometry x="0.7074" y="-30" width="160" relative="1" as="geometry">
            <mxPoint x="277" y="755" as="sourcePoint" />
            <mxPoint x="447" y="755" as="targetPoint" />
            <Array as="points">
              <mxPoint x="197" y="715" />
              <mxPoint x="379" y="715" />
            </Array>
            <mxPoint x="-30" y="30" as="offset" />
          </mxGeometry>
        </mxCell>
        <mxCell id="D09W5iZ9T6riWIHngCiJ-21" value="Extends" style="endArrow=block;endSize=16;endFill=0;entryX=0.465;entryY=1.013;entryDx=0;entryDy=0;entryPerimeter=0;html=1;fontColor=#FFFFFF;exitX=0.5;exitY=0;exitDx=0;exitDy=0;" parent="1" source="D09W5iZ9T6riWIHngCiJ-38" edge="1">
          <mxGeometry x="0.7026" y="26" width="160" relative="1" as="geometry">
            <mxPoint x="557.3199999999999" y="754.56" as="sourcePoint" />
            <mxPoint x="379.06500000000005" y="677" as="targetPoint" />
            <Array as="points">
              <mxPoint x="557" y="715" />
              <mxPoint x="379" y="715" />
            </Array>
            <mxPoint x="26" y="26" as="offset" />
          </mxGeometry>
        </mxCell>
        <mxCell id="D09W5iZ9T6riWIHngCiJ-22" value="&lt;p style=&quot;margin: 0px ; margin-top: 4px ; text-align: center&quot;&gt;&lt;b&gt;Lesson&lt;/b&gt;&lt;/p&gt;&lt;hr size=&quot;1&quot;&gt;&lt;p style=&quot;margin: 0px ; margin-left: 4px&quot;&gt;+ numPerWeek: int&lt;/p&gt;&lt;hr size=&quot;1&quot;&gt;&lt;p style=&quot;margin: 0px ; margin-left: 4px&quot;&gt;+ Lesson(String, String, boolean, int)&lt;/p&gt;&lt;p style=&quot;margin: 0px ; margin-left: 4px&quot;&gt;+ getStorageString(): String&lt;/p&gt;" style="verticalAlign=top;align=left;overflow=fill;fontSize=12;fontFamily=Helvetica;html=1;" parent="1" vertex="1">
          <mxGeometry x="87" y="755" width="220" height="90" as="geometry" />
        </mxCell>
        <mxCell id="D09W5iZ9T6riWIHngCiJ-38" value="&lt;p style=&quot;margin: 0px ; margin-top: 4px ; text-align: center&quot;&gt;&lt;b&gt;Activity&lt;/b&gt;&lt;/p&gt;&lt;hr size=&quot;1&quot;&gt;&lt;p style=&quot;margin: 0px 0px 0px 4px ; line-height: 0%&quot;&gt;&lt;br&gt;&lt;/p&gt;&lt;hr size=&quot;1&quot;&gt;&lt;p style=&quot;margin: 0px ; margin-left: 4px&quot;&gt;+ addPeriod(Duration)&lt;/p&gt;&lt;p style=&quot;margin: 0px ; margin-left: 4px&quot;&gt;+ getStorageString(): String&lt;/p&gt;" style="verticalAlign=top;align=left;overflow=fill;fontSize=12;fontFamily=Helvetica;html=1;strokeColor=#000000;" parent="1" vertex="1">
          <mxGeometry x="477" y="755" width="160" height="90" as="geometry" />
        </mxCell>
        <mxCell id="D09W5iZ9T6riWIHngCiJ-39" value="&lt;p style=&quot;margin: 0px ; margin-top: 4px ; text-align: center&quot;&gt;&lt;i&gt;&amp;lt;&amp;lt;enumeation&amp;gt;&amp;gt;&lt;/i&gt;&lt;br&gt;&lt;b&gt;EventType&lt;/b&gt;&lt;/p&gt;&lt;hr size=&quot;1&quot;&gt;&lt;p style=&quot;margin: 0px ; margin-left: 4px&quot;&gt;A&lt;br&gt;L&lt;/p&gt;" style="verticalAlign=top;align=left;overflow=fill;fontSize=12;fontFamily=Helvetica;html=1;strokeColor=#000000;" parent="1" vertex="1">
          <mxGeometry x="617" y="535" width="190" height="80" as="geometry" />
        </mxCell>
        <mxCell id="D09W5iZ9T6riWIHngCiJ-40" value="1" style="endArrow=open;endSize=12;html=1;fontColor=#050001;exitX=0.996;exitY=0.2;exitDx=0;exitDy=0;exitPerimeter=0;entryX=0;entryY=0.25;entryDx=0;entryDy=0;" parent="1" source="D09W5iZ9T6riWIHngCiJ-5" target="D09W5iZ9T6riWIHngCiJ-39" edge="1">
          <mxGeometry x="-0.7824" y="15" width="160" relative="1" as="geometry">
            <mxPoint x="477" y="574.5" as="sourcePoint" />
            <mxPoint x="637" y="574.5" as="targetPoint" />
            <mxPoint as="offset" />
          </mxGeometry>
        </mxCell>
        <mxCell id="D09W5iZ9T6riWIHngCiJ-41" value="&lt;p style=&quot;margin: 0px ; margin-top: 4px ; text-align: center&quot;&gt;&lt;b&gt;Duration&lt;/b&gt;&lt;/p&gt;&lt;hr size=&quot;1&quot;&gt;&lt;p style=&quot;margin: 0px ; margin-left: 4px&quot;&gt;+ startDateTime: LocalDateTime&lt;/p&gt;&lt;p style=&quot;margin: 0px ; margin-left: 4px&quot;&gt;+ endDateTime: LocalDateTime&lt;/p&gt;&lt;p style=&quot;margin: 0px ; margin-left: 4px&quot;&gt;+ timeSlot: List&amp;lt;Integer&amp;gt;&lt;/p&gt;&lt;hr size=&quot;1&quot;&gt;&lt;p style=&quot;margin: 0px ; margin-left: 4px&quot;&gt;+ Duration(LocalDateTime, LocalDateTime)&lt;/p&gt;&lt;p style=&quot;margin: 0px ; margin-left: 4px&quot;&gt;+ Duration(LocalDateTime)&lt;/p&gt;&lt;p style=&quot;margin: 0px ; margin-left: 4px&quot;&gt;+ getTime(LocalDateTime): int&lt;/p&gt;&lt;p style=&quot;margin: 0px ; margin-left: 4px&quot;&gt;+ containTimeSlot(int): boolean&lt;/p&gt;" style="verticalAlign=top;align=left;overflow=fill;fontSize=12;fontFamily=Helvetica;html=1;strokeColor=#000000;" parent="1" vertex="1">
          <mxGeometry x="40" y="260" width="240" height="150" as="geometry" />
        </mxCell>
        <mxCell id="D09W5iZ9T6riWIHngCiJ-45" value="" style="endArrow=block;endFill=1;html=1;edgeStyle=orthogonalEdgeStyle;align=left;verticalAlign=top;fontColor=#050001;entryX=0.468;entryY=0.998;entryDx=0;entryDy=0;entryPerimeter=0;exitX=-0.008;exitY=0.207;exitDx=0;exitDy=0;exitPerimeter=0;" parent="1" source="D09W5iZ9T6riWIHngCiJ-5" target="D09W5iZ9T6riWIHngCiJ-41" edge="1">
          <mxGeometry x="-1" relative="1" as="geometry">
            <mxPoint x="197" y="465" as="sourcePoint" />
            <mxPoint x="37" y="465" as="targetPoint" />
            <Array as="points">
              <mxPoint x="152" y="556" />
            </Array>
          </mxGeometry>
        </mxCell>
        <mxCell id="D09W5iZ9T6riWIHngCiJ-46" value="1..*" style="edgeLabel;resizable=0;html=1;align=left;verticalAlign=bottom;" parent="D09W5iZ9T6riWIHngCiJ-45" connectable="0" vertex="1">
          <mxGeometry x="-1" relative="1" as="geometry">
            <mxPoint x="-21.07" y="-4.050000000000001" as="offset" />
          </mxGeometry>
        </mxCell>
        <mxCell id="D09W5iZ9T6riWIHngCiJ-51" value="&lt;p style=&quot;margin: 0px ; margin-top: 4px ; text-align: center&quot;&gt;&lt;b&gt;EventList&lt;/b&gt;&lt;/p&gt;&lt;hr size=&quot;1&quot;&gt;&lt;p style=&quot;margin: 0px ; margin-left: 4px&quot;&gt;+ dateTag: LocalDate&lt;/p&gt;&lt;hr size=&quot;1&quot;&gt;&lt;p style=&quot;margin: 0px ; margin-left: 4px&quot;&gt;+ EventList(LocalDateTime)&lt;/p&gt;&lt;p style=&quot;margin: 0px ; margin-left: 4px&quot;&gt;+ addEvent(Event)&lt;/p&gt;" style="verticalAlign=top;align=left;overflow=fill;fontSize=12;fontFamily=Helvetica;html=1;strokeColor=#000000;" parent="1" vertex="1">
          <mxGeometry x="627.5" y="320" width="160" height="90" as="geometry" />
        </mxCell>
        <mxCell id="D09W5iZ9T6riWIHngCiJ-52" value="" style="endArrow=block;endFill=1;html=1;edgeStyle=orthogonalEdgeStyle;align=left;verticalAlign=top;fontColor=#050001;entryX=0.5;entryY=1;entryDx=0;entryDy=0;exitX=0.5;exitY=0;exitDx=0;exitDy=0;" parent="1" source="D09W5iZ9T6riWIHngCiJ-5" target="D09W5iZ9T6riWIHngCiJ-51" edge="1">
          <mxGeometry x="-1" relative="1" as="geometry">
            <mxPoint x="307" y="505" as="sourcePoint" />
            <mxPoint x="467" y="505" as="targetPoint" />
          </mxGeometry>
        </mxCell>
        <mxCell id="D09W5iZ9T6riWIHngCiJ-53" value="1..*" style="edgeLabel;resizable=0;html=1;align=left;verticalAlign=bottom;" parent="D09W5iZ9T6riWIHngCiJ-52" connectable="0" vertex="1">
          <mxGeometry x="-1" relative="1" as="geometry" />
        </mxCell>
        <mxCell id="D09W5iZ9T6riWIHngCiJ-55" value="&lt;p style=&quot;margin: 0px ; margin-top: 4px ; text-align: center&quot;&gt;&lt;b&gt;DateList&lt;/b&gt;&lt;/p&gt;&lt;hr size=&quot;1&quot;&gt;&lt;p style=&quot;margin: 0px 0px 0px 4px ; line-height: 0% ; font-size: 1px&quot;&gt;&lt;br&gt;&lt;/p&gt;&lt;hr size=&quot;1&quot;&gt;&lt;p style=&quot;margin: 0px ; margin-left: 4px&quot;&gt;+ DateList()&lt;/p&gt;&lt;p style=&quot;margin: 0px ; margin-left: 4px&quot;&gt;+ addLesson(Event)&lt;/p&gt;" style="verticalAlign=top;align=left;overflow=fill;fontSize=12;fontFamily=Helvetica;html=1;strokeColor=#000000;" parent="1" vertex="1">
          <mxGeometry x="636" y="160" width="160" height="90" as="geometry" />
        </mxCell>
        <mxCell id="D09W5iZ9T6riWIHngCiJ-58" value="&lt;span style=&quot;color: rgba(0 , 0 , 0 , 0) ; font-family: monospace ; font-size: 0px&quot;&gt;%3CmxGraphModel%3E%3Croot%3E%3CmxCell%20id%3D%220%22%2F%3E%3CmxCell%20id%3D%221%22%20parent%3D%220%22%2F%3E%3CmxCell%20id%3D%222%22%20value%3D%22%22%20style%3D%22endArrow%3Dblock%3BendFill%3D1%3Bhtml%3D1%3BedgeStyle%3DorthogonalEdgeStyle%3Balign%3Dleft%3BverticalAlign%3Dtop%3BfontColor%3D%23050001%3BentryX%3D0.5%3BentryY%3D1%3BentryDx%3D0%3BentryDy%3D0%3BexitX%3D0.5%3BexitY%3D0%3BexitDx%3D0%3BexitDy%3D0%3B%22%20edge%3D%221%22%20parent%3D%221%22%3E%3CmxGeometry%20x%3D%22-1%22%20relative%3D%221%22%20as%3D%22geometry%22%3E%3CmxPoint%20x%3D%22265.5%22%20y%3D%22525%22%20as%3D%22sourcePoint%22%2F%3E%3CmxPoint%20x%3D%22265%22%20y%3D%22415%22%20as%3D%22targetPoint%22%2F%3E%3C%2FmxGeometry%3E%3C%2FmxCell%3E%3CmxCell%20id%3D%223%22%20value%3D%221..*%22%20style%3D%22edgeLabel%3Bresizable%3D0%3Bhtml%3D1%3Balign%3Dleft%3BverticalAlign%3Dbottom%3B%22%20connectable%3D%220%22%20vertex%3D%221%22%20parent%3D%222%22%3E%3CmxGeometry%20x%3D%22-1%22%20relative%3D%221%22%20as%3D%22geometry%22%2F%3E%3C%2FmxCell%3E%3C%2Froot%3E%3C%2FmxGraphModel%3E&lt;/span&gt;" style="text;html=1;align=center;verticalAlign=middle;resizable=0;points=[];autosize=1;fontColor=#050001;" parent="1" vertex="1">
          <mxGeometry x="732" y="230" width="20" height="20" as="geometry" />
        </mxCell>
        <mxCell id="D09W5iZ9T6riWIHngCiJ-59" value="" style="endArrow=block;endFill=1;html=1;edgeStyle=orthogonalEdgeStyle;align=left;verticalAlign=top;fontColor=#050001;entryX=0.418;entryY=1.028;entryDx=0;entryDy=0;exitX=0.474;exitY=-0.022;exitDx=0;exitDy=0;exitPerimeter=0;entryPerimeter=0;" parent="1" source="D09W5iZ9T6riWIHngCiJ-51" target="D09W5iZ9T6riWIHngCiJ-55" edge="1">
          <mxGeometry x="-1" relative="1" as="geometry">
            <mxPoint x="702" y="295" as="sourcePoint" />
            <mxPoint x="702" y="190" as="targetPoint" />
          </mxGeometry>
        </mxCell>
        <mxCell id="D09W5iZ9T6riWIHngCiJ-60" value="0..*" style="edgeLabel;resizable=0;html=1;align=left;verticalAlign=bottom;" parent="D09W5iZ9T6riWIHngCiJ-59" connectable="0" vertex="1">
          <mxGeometry x="-1" relative="1" as="geometry" />
        </mxCell>
        <mxCell id="D09W5iZ9T6riWIHngCiJ-61" value="&lt;p style=&quot;margin: 0px ; margin-top: 4px ; text-align: center&quot;&gt;&lt;b&gt;TimeTableRun&lt;/b&gt;&lt;/p&gt;&lt;hr size=&quot;1&quot;&gt;&lt;p style=&quot;margin: 0px 0px 0px 4px ; line-height: 0%&quot;&gt;&lt;br&gt;&lt;/p&gt;&lt;hr size=&quot;1&quot;&gt;&lt;p style=&quot;margin: 0px ; margin-left: 4px&quot;&gt;+ TimeTableRun()&lt;/p&gt;&lt;p style=&quot;margin: 0px ; margin-left: 4px&quot;&gt;+ run(String)&lt;/p&gt;" style="verticalAlign=top;align=left;overflow=fill;fontSize=12;fontFamily=Helvetica;html=1;strokeColor=#000000;" parent="1" vertex="1">
          <mxGeometry x="372" y="165" width="160" height="80" as="geometry" />
        </mxCell>
        <mxCell id="D09W5iZ9T6riWIHngCiJ-62" value="" style="endArrow=block;endFill=1;html=1;edgeStyle=orthogonalEdgeStyle;align=left;verticalAlign=top;fontColor=#050001;entryX=1;entryY=0.5;entryDx=0;entryDy=0;exitX=0;exitY=0.5;exitDx=0;exitDy=0;" parent="1" source="D09W5iZ9T6riWIHngCiJ-55" target="D09W5iZ9T6riWIHngCiJ-61" edge="1">
          <mxGeometry x="-1" relative="1" as="geometry">
            <mxPoint x="492" y="375" as="sourcePoint" />
            <mxPoint x="492" y="270" as="targetPoint" />
          </mxGeometry>
        </mxCell>
        <mxCell id="D09W5iZ9T6riWIHngCiJ-63" value="1" style="edgeLabel;resizable=0;html=1;align=left;verticalAlign=bottom;" parent="D09W5iZ9T6riWIHngCiJ-62" connectable="0" vertex="1">
          <mxGeometry x="-1" relative="1" as="geometry">
            <mxPoint x="-14" as="offset" />
          </mxGeometry>
        </mxCell>
        <mxCell id="D09W5iZ9T6riWIHngCiJ-64" value="&lt;p style=&quot;margin: 0px ; margin-top: 4px ; text-align: center&quot;&gt;&lt;b&gt;TimeTableStorage&lt;/b&gt;&lt;/p&gt;&lt;hr size=&quot;1&quot;&gt;&lt;p style=&quot;margin: 0px ; margin-left: 4px&quot;&gt;&lt;u&gt;- taskFile: File&lt;/u&gt;&lt;/p&gt;&lt;p style=&quot;margin: 0px ; margin-left: 4px&quot;&gt;- filePath: String&lt;/p&gt;&lt;hr size=&quot;1&quot;&gt;&lt;p style=&quot;margin: 0px ; margin-left: 4px&quot;&gt;+ TimeTableStorage(String, DateList)&lt;/p&gt;&lt;p style=&quot;margin: 0px ; margin-left: 4px&quot;&gt;+ checkFile (DateList)&lt;/p&gt;&lt;p style=&quot;margin: 0px ; margin-left: 4px&quot;&gt;+ writeFile(Event)&lt;/p&gt;&lt;p style=&quot;margin: 0px ; margin-left: 4px&quot;&gt;- loadFile(DateList)&lt;/p&gt;" style="verticalAlign=top;align=left;overflow=fill;fontSize=12;fontFamily=Helvetica;html=1;strokeColor=#000000;" parent="1" vertex="1">
          <mxGeometry x="318" y="295" width="220" height="140" as="geometry" />
        </mxCell>
        <mxCell id="D09W5iZ9T6riWIHngCiJ-65" value="" style="endArrow=block;endFill=1;html=1;edgeStyle=orthogonalEdgeStyle;align=left;verticalAlign=top;fontColor=#050001;entryX=0.446;entryY=0.996;entryDx=0;entryDy=0;exitX=0.572;exitY=-0.007;exitDx=0;exitDy=0;entryPerimeter=0;exitPerimeter=0;" parent="1" source="D09W5iZ9T6riWIHngCiJ-64" target="D09W5iZ9T6riWIHngCiJ-61" edge="1">
          <mxGeometry x="-1" relative="1" as="geometry">
            <mxPoint x="596" y="270" as="sourcePoint" />
            <mxPoint x="492" y="270" as="targetPoint" />
          </mxGeometry>
        </mxCell>
        <mxCell id="D09W5iZ9T6riWIHngCiJ-66" value="1" style="edgeLabel;resizable=0;html=1;align=left;verticalAlign=bottom;" parent="D09W5iZ9T6riWIHngCiJ-65" connectable="0" vertex="1">
          <mxGeometry x="-1" relative="1" as="geometry">
            <mxPoint x="-11.84" y="0.98" as="offset" />
          </mxGeometry>
        </mxCell>
      </root>
    </mxGraphModel>
  </diagram>
</mxfile>
